<svg xmlns="http://www.w3.org/2000/svg" width="1600" height="900" viewBox="0 0 1600 900">
  <defs>
    <linearGradient id="bg" x1="0" y1="0" x2="1" y2="1">
      <stop offset="0" stop-color="#071827"/>
      <stop offset="1" stop-color="#10324b"/>
    </linearGradient>
    <linearGradient id="accent" x1="0" y1="0" x2="1" y2="0">
      <stop offset="0" stop-color="#30d5c8"/>
      <stop offset="1" stop-color="#2d9cdb"/>
    </linearGradient>
  </defs>
  <rect width="1600" height="900" fill="url(#bg)"/>
  <circle cx="1410" cy="120" r="250" fill="#1b5575" opacity="0.2"/>
  <circle cx="160" cy="830" r="260" fill="#0f716f" opacity="0.13"/>
  <rect x="70" y="70" width="10" height="190" rx="5" fill="#30d5c8"/>
  <text x="110" y="145" fill="#ffffff" font-family="Arial, sans-serif" font-size="72" font-weight="700">Automação de Ordens de Compra</text>
  <text x="110" y="225" fill="url(#accent)" font-family="Arial, sans-serif" font-size="62" font-weight="700">PDF para TXT NeoGrid</text>
  <text x="110" y="285" fill="#c8d6e2" font-family="Arial, sans-serif" font-size="30">Python • PDFPlumber • pandas • RapidFuzz • Windows Server</text>

  <g transform="translate(90 365)">
    <rect x="0" y="0" width="280" height="250" rx="28" fill="#0d2940" stroke="#30d5c8" stroke-width="2"/>
    <rect x="72" y="42" width="136" height="156" rx="12" fill="#ffffff"/>
    <polygon points="170,42 208,80 170,80" fill="#dce7ef"/>
    <text x="140" y="130" text-anchor="middle" fill="#d64545" font-family="Arial" font-size="38" font-weight="700">PDF</text>
    <text x="140" y="225" text-anchor="middle" fill="#c8d6e2" font-family="Arial" font-size="25">Ordem de compra</text>

    <path d="M305 125 H390" stroke="#30d5c8" stroke-width="7" stroke-linecap="round"/>
    <path d="M370 105 L395 125 L370 145" fill="none" stroke="#30d5c8" stroke-width="7"/>

    <rect x="420" y="0" width="280" height="250" rx="28" fill="#0d2940" stroke="#30d5c8" stroke-width="2"/>
    <circle cx="560" cy="105" r="54" fill="#2d9cdb"/>
    <text x="560" y="118" text-anchor="middle" fill="#ffffff" font-family="Arial" font-size="36" font-weight="700">PY</text>
    <text x="560" y="192" text-anchor="middle" fill="#ffffff" font-family="Arial" font-size="28" font-weight="700">Extração e regras</text>
    <text x="560" y="225" text-anchor="middle" fill="#c8d6e2" font-family="Arial" font-size="22">De/Para • Conversões • Validação</text>

    <path d="M725 125 H810" stroke="#30d5c8" stroke-width="7" stroke-linecap="round"/>
    <path d="M790 105 L815 125 L790 145" fill="none" stroke="#30d5c8" stroke-width="7"/>

    <rect x="840" y="0" width="280" height="250" rx="28" fill="#0d2940" stroke="#30d5c8" stroke-width="2"/>
    <rect x="915" y="52" width="130" height="145" rx="12" fill="#f5f7fa"/>
    <text x="980" y="130" text-anchor="middle" fill="#173b59" font-family="Courier New" font-size="34" font-weight="700">TXT</text>
    <text x="980" y="225" text-anchor="middle" fill="#c8d6e2" font-family="Arial" font-size="25">Layout NeoGrid</text>

    <path d="M1145 125 H1230" stroke="#30d5c8" stroke-width="7" stroke-linecap="round"/>
    <path d="M1210 105 L1235 125 L1210 145" fill="none" stroke="#30d5c8" stroke-width="7"/>

    <rect x="1260" y="0" width="250" height="250" rx="28" fill="#0d2940" stroke="#30d5c8" stroke-width="2"/>
    <rect x="1320" y="54" width="130" height="86" rx="10" fill="#245f87"/>
    <rect x="1348" y="140" width="74" height="55" fill="#1a4768"/>
    <text x="1385" y="106" text-anchor="middle" fill="#ffffff" font-family="Arial" font-size="31" font-weight="700">ERP</text>
    <text x="1385" y="225" text-anchor="middle" fill="#c8d6e2" font-family="Arial" font-size="24">Importação automática</text>
  </g>

  <g transform="translate(90 700)">
    <rect width="1420" height="120" rx="28" fill="#081c2d" stroke="#2d9cdb" stroke-width="2"/>
    <text x="45" y="48" fill="#30d5c8" font-family="Arial" font-size="26" font-weight="700">RESULTADO</text>
    <text x="45" y="88" fill="#ffffff" font-family="Arial" font-size="24">Menos digitação manual</text>
    <circle cx="390" cy="77" r="7" fill="#30d5c8"/>
    <text x="418" y="85" fill="#ffffff" font-family="Arial" font-size="24">Validação antes da importação</text>
    <circle cx="810" cy="77" r="7" fill="#30d5c8"/>
    <text x="838" y="85" fill="#ffffff" font-family="Arial" font-size="24">Rastreabilidade</text>
    <circle cx="1080" cy="77" r="7" fill="#30d5c8"/>
    <text x="1108" y="85" fill="#ffffff" font-family="Arial" font-size="24">Execução automática no servidor</text>
  </g>
</svg>
